<svg xmlns="http://www.w3.org/2000/svg" width="100" height="100"><path fill="#c7ede6" d="M87.215 56.71A15.423 15.423 0 0 0 89 49.5c0-6.621-4.159-12.257-10.001-14.478L79 35c0-11.598-9.402-21-21-21-9.784 0-17.981 6.701-20.313 15.757A14.982 14.982 0 0 0 33 29c-7.692 0-14.023 5.793-14.89 13.252C12.906 43.353 9 47.969 9 53.5 9 59.851 14.149 65 20.5 65c.177 0 .352-.012.526-.022-.004.175-.026.346-.026.522C21 76.822 30.178 86 41.5 86c6.437 0 12.175-2.972 15.934-7.614A11.948 11.948 0 0 0 66 82c4.65 0 8.674-2.65 10.666-6.518 1.052.335 2.171.518 3.334.518 6.075 0 11-4.925 11-11 0-3.311-1.47-6.273-3.785-8.29z"/><path fill="#fdfcef" d="M78.5 71.5v.5h3v-.5H87a4.5 4.5 0 0 0 4.5-4.5c0-2.333-1.782-4.229-4.055-4.455.022-.181.055-.358.055-.545a4.5 4.5 0 0 0-4.5-4.5c-1.438 0-2.703.686-3.527 1.736-.14-2.636-2.302-4.736-4.973-4.736a5 5 0 0 0-5 5c0 .446.077.87.187 1.282A3.477 3.477 0 0 0 67 59.5a3.489 3.489 0 0 0-3.455 3.055c-.181-.022-.358-.055-.545-.055a4.5 4.5 0 0 0 0 9h15.5z"/><path fill="#472b29" d="M74.5 54a5.506 5.506 0 0 0-5.5 5.5v.047A3.933 3.933 0 0 0 67 59a3.998 3.998 0 0 0-3.858 3.005A2.22 2.22 0 0 0 63 62c-2.757 0-5 2.243-5 5s2.243 5 5 5h15.5a.5.5 0 0 0 0-1H63c-2.206 0-4-1.794-4-4s1.794-4 4-4c.117 0 .23.017.343.032l.141.019a.502.502 0 0 0 .557-.433A2.996 2.996 0 0 1 67 60c.885 0 1.723.401 2.301 1.1a.503.503 0 0 0 .614.126.5.5 0 0 0 .254-.573A4.45 4.45 0 0 1 70 59.5c0-2.481 2.019-4.5 4.5-4.5 2.381 0 4.347 1.872 4.474 4.263a.5.5 0 0 0 .893.282A3.97 3.97 0 0 1 83 58c2.206 0 4 1.794 4 4 0 .117-.017.23-.032.343l-.019.141a.5.5 0 0 0 .446.558A3.976 3.976 0 0 1 91 67c0 2.206-1.794 4-4 4h-5.5a.5.5 0 0 0 0 1H87c2.757 0 5-2.243 5-5a4.966 4.966 0 0 0-4.003-4.877L88 62c0-2.757-2.243-5-5-5a4.932 4.932 0 0 0-3.183 1.164A5.486 5.486 0 0 0 74.5 54z"/><path fill="#472b29" d="M73 61c-1.403 0-2.609.999-2.913 2.341A2.344 2.344 0 0 0 68.875 63a2.377 2.377 0 0 0-2.353 2.068 2.628 2.628 0 0 0-.584-.068 2.94 2.94 0 0 0-2.918 2.732.25.25 0 0 0 .231.268h.018a.25.25 0 0 0 .249-.232 2.44 2.44 0 0 1 2.419-2.268c.229 0 .47.041.738.127.022.007.045.01.067.01a.26.26 0 0 0 .258-.262c0-1.034.841-1.875 1.875-1.875.447 0 .885.168 1.231.473a.252.252 0 0 0 .165.063.231.231 0 0 0 .093-.019.247.247 0 0 0 .155-.212C70.623 62.512 71.712 61.5 73 61.5c.208 0 .425.034.682.107a.25.25 0 0 0 .137-.481A2.94 2.94 0 0 0 73 61zm13.883 1.5a3.007 3.007 0 0 0-2.874 2.182.25.25 0 1 0 .481.136A2.505 2.505 0 0 1 86.883 63c.117 0 .23.014.342.029a.251.251 0 0 0 .281-.214.249.249 0 0 0-.214-.281 3.063 3.063 0 0 0-.409-.034z"/><path fill="#fff" d="M31.5 76h-10a.5.5 0 0 1 0-1h10a.5.5 0 0 1 0 1zm3 0h-1a.5.5 0 0 1 0-1h1a.5.5 0 0 1 0 1zm4.991 2H30.5a.5.5 0 0 1 0-1h8.991a.5.5 0 0 1 0 1zM28.5 78h-1a.5.5 0 0 1 0-1h1a.5.5 0 0 1 0 1zm-3 0h-2a.5.5 0 0 1 0-1h2a.5.5 0 0 1 0 1zm6 2h-2a.5.5 0 0 1 0-1h2a.5.5 0 0 1 0 1zm3-9h-1a.5.5 0 0 0 0 1h1a.5.5 0 0 0 0-1zm0 2h-5a.5.5 0 0 0 0 1h5a.5.5 0 0 0 0-1zm5 2h-3a.5.5 0 0 0 0 1h3a.5.5 0 0 0 0-1zM72.5 24h-10a.5.5 0 0 1 0-1h10a.5.5 0 0 1 0 1zm4 0h-2a.5.5 0 0 1 0-1h2a.5.5 0 0 1 0 1zm5 2h-10a.5.5 0 0 1 0-1h10a.5.5 0 0 1 0 1zm-12 0h-1a.5.5 0 0 1 0-1h1a.5.5 0 0 1 0 1zm-3.03 0H64.5a.5.5 0 0 1 0-1h1.97a.5.5 0 0 1 0 1zm9.03-4h-5a.5.5 0 0 1 0-1h5a.5.5 0 0 1 0 1zm-3 6h-2a.5.5 0 0 1 0-1h2a.5.5 0 0 1 0 1z"/><path fill="#ea5167" d="M37.81 47.585c1.164-6.772 7.049-11.929 14.153-11.929a14.29 14.29 0 0 1 8.595 2.872l6.127-6.598a23.142 23.142 0 0 0-14.722-5.259c-11.446 0-20.952 8.276-22.879 19.169l8.726 1.745z"/><path fill="#00a698" d="M60.497 61.599a14.303 14.303 0 0 1-8.534 2.81c-7.516 0-13.675-5.769-14.313-13.119l-8.539 2.846c1.987 10.819 11.459 19.019 22.852 19.019 6.001 0 11.47-2.275 15.594-6.009l-7.06-5.547z"/><path fill="#48bed8" d="M69.693 45.72H52.442v8.626h13.237a14.415 14.415 0 0 1-6.034 7.839l6.944 5.787c5.255-4.261 8.616-10.766 8.616-18.058 0-1.432-.136-2.832-.385-4.193h-5.127z"/><path fill="#fde751" d="M37.586 50.032c0-2.092.457-4.075 1.261-5.868l-7.493-4.995a23.132 23.132 0 0 0-2.634 10.744c0 3.627.832 7.059 2.313 10.117l7.511-5.206c-.351-1.244-.958-3.435-.958-4.792z"/><path fill="#472b29" d="M51.962 73.825c-13.185 0-23.913-10.727-23.913-23.913S38.777 26 51.962 26a23.95 23.95 0 0 1 15.146 5.411l.552.452-7.022 7.563-.483-.361a13.584 13.584 0 0 0-8.193-2.738c-7.557 0-13.705 6.148-13.705 13.705s6.148 13.705 13.705 13.705c5.708 0 10.73-3.468 12.77-8.721H51.771v-9.968h23.608l.1.55c.263 1.44.396 2.892.396 4.314 0 13.186-10.727 23.913-23.913 23.913zm0-46.483c-12.445 0-22.57 10.125-22.57 22.57s10.125 22.57 22.57 22.57 22.57-10.125 22.57-22.57c0-1.161-.094-2.343-.28-3.522h-21.14v7.284h13.48l-.274.872a14.987 14.987 0 0 1-14.357 10.533c-8.297 0-15.047-6.75-15.047-15.047s6.75-15.047 15.047-15.047c3.058 0 5.985.915 8.506 2.652l5.231-5.633a22.615 22.615 0 0 0-13.736-4.662z"/><path fill="#fdfcef" d="M36.5 36.5H40a3.5 3.5 0 0 0 3.5-3.5 3.489 3.489 0 0 0-3.055-3.455c.028-.179.055-.358.055-.545a3.5 3.5 0 0 0-3.5-3.5c-1.032 0-1.95.455-2.59 1.165a3.999 3.999 0 0 0-7.91.835c0 .191.03.374.056.558A2.473 2.473 0 0 0 25 27.5a2.496 2.496 0 0 0-2.455 2.055A3.495 3.495 0 0 0 22 29.5a3.5 3.5 0 1 0 0 7h7.5v.5h7v-.5z"/><path fill="#472b29" d="M38.25 32a.25.25 0 0 1-.25-.25 2.22 2.22 0 0 1 2.218-2.218c.034.009.737-.001 1.244.136a.25.25 0 0 1-.13.482c-.444-.12-1.1-.12-1.113-.118A1.72 1.72 0 0 0 38.5 31.75a.25.25 0 0 1-.25.25zm-6.75 4a.5.5 0 1 0 0 1 .5.5 0 1 0 0-1z"/><path fill="#472b29" d="M40 37h-3.5a.5.5 0 0 1 0-1H40c1.654 0 3-1.346 3-3a2.996 2.996 0 0 0-2.618-2.959.502.502 0 0 1-.43-.573c.023-.154.048-.308.048-.468 0-1.654-1.346-3-3-3-.85 0-1.638.355-2.219 1a.498.498 0 0 1-.86-.231A3.514 3.514 0 0 0 30.5 24c-1.93 0-3.5 1.57-3.5 3.5 0 .143.021.28.041.418.029.203-.063.438-.242.54-.179.102-.396.118-.556-.01A1.97 1.97 0 0 0 25 28c-.966 0-1.792.691-1.963 1.644a.498.498 0 0 1-.569.405C22.314 30.025 22.16 30 22 30c-1.654 0-3 1.346-3 3s1.346 3 3 3h7.5a.5.5 0 0 1 0 1H22c-2.206 0-4-1.794-4-4a4.004 4.004 0 0 1 4.174-3.994A2.993 2.993 0 0 1 25 27c.349 0 .689.061 1.011.18A4.506 4.506 0 0 1 30.5 23a4.523 4.523 0 0 1 4.153 2.774A3.979 3.979 0 0 1 37 25a4.004 4.004 0 0 1 3.996 4.142A3.999 3.999 0 0 1 44 33c0 2.206-1.794 4-4 4z"/><path fill="#472b29" d="M34.5 36h-1a.5.5 0 0 0 0 1h1a.5.5 0 0 0 0-1z"/></svg>