<svg aria-hidden="true" style="width:0;height:0;position:absolute;overflow:hidden" xmlns="http://www.w3.org/2000/svg"><defs><symbol id="icon-heart" viewBox="0 0 32 32"><path fill="#ff6b08" style="fill:var(--color1,#ff6b08)" d="m16 30.144-2.24-2.218C5.44 20.639 0 15.728 0 9.708 0 4.797 3.84.995 8.8.995c2.72 0 5.44 1.267 7.2 3.327C17.76 2.263 20.48.995 23.2.995c4.96 0 8.8 3.802 8.8 8.713 0 6.02-5.44 10.931-13.76 18.218L16 30.144z"/></symbol><symbol id="icon-search" viewBox="0 0 32 32"><path fill="none" stroke="#fff" style="stroke:var(--color2,#fff)" stroke-linejoin="round" stroke-linecap="round" stroke-width="2.667" d="M14.667 25.333c5.891 0 10.667-4.776 10.667-10.667S20.558 3.999 14.667 3.999 4 8.775 4 14.666s4.776 10.667 10.667 10.667zM28 28.001l-5.8-5.8"/></symbol><symbol id="icon-logo" viewBox="0 0 32 32"><path fill="none" stroke="#818181" style="stroke:var(--color3,#818181)" stroke-linejoin="round" stroke-linecap="round" stroke-width="2.667" d="M26.427 2.667H5.574a2.907 2.907 0 0 0-2.907 2.907v20.853a2.907 2.907 0 0 0 2.907 2.907h20.853a2.907 2.907 0 0 0 2.907-2.907V5.574a2.907 2.907 0 0 0-2.907-2.907zM9.333 2.667v26.667M22.667 2.667v26.667M2.667 16h26.667M2.667 9.333h6.667M2.667 22.667h6.667M22.667 22.667h6.667M22.667 9.333h6.667"/></symbol><symbol id="icon-close" viewBox="0 0 32 32"><path fill="#545454" style="fill:var(--color1,#545454)" d="M16 0C7.163 0 0 7.163 0 16s7.163 16 16 16 16-7.163 16-16S24.837 0 16 0zm0 29C8.82 29 3 23.18 3 16S8.82 3 16 3s13 5.82 13 13-5.82 13-13 13z"/><path fill="#545454" style="fill:var(--color1,#545454)" d="m21 8-5 5-5-5-3 3 5 5-5 5 3 3 5-5 5 5 3-3-5-5 5-5z"/></symbol><symbol id="icon-github" viewBox="0 0 32 32"><path d="M16 .395c-8.836 0-16 7.163-16 16 0 7.069 4.585 13.067 10.942 15.182.8.148 1.094-.347 1.094-.77 0-.381-.015-1.642-.022-2.979-4.452.968-5.391-1.888-5.391-1.888-.728-1.849-1.776-2.341-1.776-2.341-1.452-.993.11-.973.11-.973 1.606.113 2.452 1.649 2.452 1.649 1.427 2.446 3.743 1.739 4.656 1.33.143-1.034.558-1.74 1.016-2.14-3.554-.404-7.29-1.777-7.29-7.907 0-1.747.625-3.174 1.649-4.295-.166-.403-.714-2.03.155-4.234 0 0 1.344-.43 4.401 1.64a15.353 15.353 0 0 1 4.005-.539c1.359.006 2.729.184 4.008.539 3.054-2.07 4.395-1.64 4.395-1.64.871 2.204.323 3.831.157 4.234 1.026 1.12 1.647 2.548 1.647 4.295 0 6.145-3.743 7.498-7.306 7.895.574.497 1.085 1.47 1.085 2.963 0 2.141-.019 3.864-.019 4.391 0 .426.288.925 1.099.768C27.421 29.457 32 23.462 32 16.395c0-8.837-7.164-16-16-16z"/></symbol><symbol id="icon-linkedin" viewBox="0 0 32 32"><path d="M29 0H3C1.35 0 0 1.35 0 3v26c0 1.65 1.35 3 3 3h26c1.65 0 3-1.35 3-3V3c0-1.65-1.35-3-3-3zM12 26H8V12h4v14zm-2-16c-1.106 0-2-.894-2-2s.894-2 2-2c1.106 0 2 .894 2 2s-.894 2-2 2zm16 16h-4v-8c0-1.106-.894-2-2-2s-2 .894-2 2v8h-4V12h4v2.481C18.825 13.35 20.087 12 21.5 12c2.488 0 4.5 2.238 4.5 5v9z"/></symbol><symbol id="sun" viewBox="0 0 24 24"><path d="m3.563 18.563 1.781-1.828 1.406 1.406-1.781 1.828zm7.453 3.89V19.5h1.969v2.953h-1.969zM12 5.484q2.484 0 4.242 1.758T18 11.484t-1.758 4.242T12 17.484t-4.242-1.758T6 11.484t1.758-4.242T12 5.484zm8.016 5.016h3v2.016h-3V10.5zm-2.766 7.641 1.406-1.359 1.781 1.781-1.406 1.406zm3.188-13.688-1.781 1.781-1.406-1.406 1.781-1.781zM12.984.563v2.953h-1.969V.563h1.969zm-9 9.937v2.016h-3V10.5h3zM6.75 4.828 5.344 6.234 3.563 4.453l1.406-1.406z"/></symbol><symbol id="moon" viewBox="0 0 18 18"><path d="M7.246 3.255a6.046 6.046 0 0 0-.198 2.597 5.988 5.988 0 0 0 7.672 4.892c-.674 2.215-2.642 3.926-4.973 4.21a5.994 5.994 0 0 1-5.248-1.977C3.347 11.673 2.83 9.99 3.042 8.238c.284-2.335 1.992-4.307 4.204-4.982zM8.985 1a8.15 8.15 0 0 0-1.104.075c-3.543.48-6.388 3.364-6.82 6.92C.469 12.862 4.245 17 8.985 17c.33 0 .665-.02 1.003-.062 3.549-.433 6.428-3.283 6.907-6.833.052-.383.076-.761.075-1.134-.002-.583-.482-.972-.996-.972a1.02 1.02 0 0 0-.614.207 3.96 3.96 0 0 1-2.383.793c-.188 0-.38-.013-.574-.04-1.732-.242-3.137-1.649-3.378-3.385a3.997 3.997 0 0 1 .751-2.963c.415-.657.025-1.609-.764-1.612h-.028z"/></symbol><symbol id="icon-arrow-right" viewBox="0 0 32 32"><path d="m19.414 27.414 10-10a2 2 0 0 0 0-2.828l-10-10a2 2 0 1 0-2.828 2.828L23.172 14H4a2 2 0 1 0 0 4h19.172l-6.586 6.586c-.39.39-.586.902-.586 1.414s.195 1.024.586 1.414a2 2 0 0 0 2.828 0z"/></symbol><symbol id="icon-arrow-left" viewBox="0 0 32 32"><path d="m12.586 27.414-10-10a2 2 0 0 1 0-2.828l10-10a2 2 0 1 1 2.828 2.828L8.828 14H28a2 2 0 1 1 0 4H8.828l6.586 6.586c.39.39.586.902.586 1.414s-.195 1.024-.586 1.414a2 2 0 0 1-2.828 0z"/></symbol><symbol id="icon-youtube" viewBox="0 0 32 32"><path d="M25.354 4.678H6.646A6.647 6.647 0 0 0 0 11.324v9.352a6.646 6.646 0 0 0 6.646 6.646h18.708A6.647 6.647 0 0 0 32 20.676v-9.352a6.647 6.647 0 0 0-6.646-6.646zm-4.495 11.777-8.75 4.173a.351.351 0 0 1-.502-.317v-8.608a.35.35 0 0 1 .51-.313l8.75 4.434a.35.35 0 0 1-.008.63z"/></symbol></defs></svg>