<svg aria-hidden="true" style="position: absolute; width: 0; height: 0; overflow: hidden;" version="1.1" xmlns="http://www.w3.org/2000/svg" xmlns:xlink="http://www.w3.org/1999/xlink">
<defs>
<symbol id="icon-heart" viewBox="0 0 32 32">
<path fill="#ff6b08" style="fill: var(--color1, #ff6b08)" d="M16 30.144l-2.24-2.218c-8.32-7.287-13.76-12.198-13.76-18.218 0-4.911 3.84-8.713 8.8-8.713 2.72 0 5.44 1.267 7.2 3.327 1.76-2.059 4.48-3.327 7.2-3.327 4.96 0 8.8 3.802 8.8 8.713 0 6.020-5.44 10.931-13.76 18.218l-2.24 2.218z"></path>
</symbol>
<symbol id="icon-search" viewBox="0 0 32 32">
<path fill="none" stroke="#fff" style="stroke: var(--color2, #fff)" stroke-linejoin="round" stroke-linecap="round" stroke-miterlimit="4" stroke-width="2.6667" d="M14.667 25.333c5.891 0 10.667-4.776 10.667-10.667s-4.776-10.667-10.667-10.667c-5.891 0-10.667 4.776-10.667 10.667s4.776 10.667 10.667 10.667z"></path>
<path fill="none" stroke="#fff" style="stroke: var(--color2, #fff)" stroke-linejoin="round" stroke-linecap="round" stroke-miterlimit="4" stroke-width="2.6667" d="M28 28.001l-5.8-5.8"></path>
</symbol>
<symbol id="icon-logo" viewBox="0 0 32 32">
<path fill="none" stroke="#818181" style="stroke: var(--color3, #818181)" stroke-linejoin="round" stroke-linecap="round" stroke-miterlimit="4" stroke-width="2.6667" d="M26.427 2.667h-20.853c-1.605 0-2.907 1.301-2.907 2.907v20.853c0 1.605 1.301 2.907 2.907 2.907h20.853c1.605 0 2.907-1.301 2.907-2.907v-20.853c0-1.605-1.301-2.907-2.907-2.907z"></path>
<path fill="none" stroke="#818181" style="stroke: var(--color3, #818181)" stroke-linejoin="round" stroke-linecap="round" stroke-miterlimit="4" stroke-width="2.6667" d="M9.333 2.667v26.667"></path>
<path fill="none" stroke="#818181" style="stroke: var(--color3, #818181)" stroke-linejoin="round" stroke-linecap="round" stroke-miterlimit="4" stroke-width="2.6667" d="M22.667 2.667v26.667"></path>
<path fill="none" stroke="#818181" style="stroke: var(--color3, #818181)" stroke-linejoin="round" stroke-linecap="round" stroke-miterlimit="4" stroke-width="2.6667" d="M2.667 16h26.667"></path>
<path fill="none" stroke="#818181" style="stroke: var(--color3, #818181)" stroke-linejoin="round" stroke-linecap="round" stroke-miterlimit="4" stroke-width="2.6667" d="M2.667 9.333h6.667"></path>
<path fill="none" stroke="#818181" style="stroke: var(--color3, #818181)" stroke-linejoin="round" stroke-linecap="round" stroke-miterlimit="4" stroke-width="2.6667" d="M2.667 22.667h6.667"></path>
<path fill="none" stroke="#818181" style="stroke: var(--color3, #818181)" stroke-linejoin="round" stroke-linecap="round" stroke-miterlimit="4" stroke-width="2.6667" d="M22.667 22.667h6.667"></path>
<path fill="none" stroke="#818181" style="stroke: var(--color3, #818181)" stroke-linejoin="round" stroke-linecap="round" stroke-miterlimit="4" stroke-width="2.6667" d="M22.667 9.333h6.667"></path>
</symbol>
<symbol id="icon-close" viewBox="0 0 32 32">
<path fill="#545454" style="fill: var(--color1, #545454)" d="M16 0c-8.837 0-16 7.163-16 16s7.163 16 16 16 16-7.163 16-16-7.163-16-16-16zM16 29c-7.18 0-13-5.82-13-13s5.82-13 13-13 13 5.82 13 13-5.82 13-13 13z"></path>
<path fill="#545454" style="fill: var(--color1, #545454)" d="M21 8l-5 5-5-5-3 3 5 5-5 5 3 3 5-5 5 5 3-3-5-5 5-5z"></path>
</symbol>
<symbol id="icon-github" viewBox="0 0 32 32">
<path d="M16 0.395c-8.836 0-16 7.163-16 16 0 7.069 4.585 13.067 10.942 15.182 0.8 0.148 1.094-0.347 1.094-0.77 0-0.381-0.015-1.642-0.022-2.979-4.452 0.968-5.391-1.888-5.391-1.888-0.728-1.849-1.776-2.341-1.776-2.341-1.452-0.993 0.11-0.973 0.11-0.973 1.606 0.113 2.452 1.649 2.452 1.649 1.427 2.446 3.743 1.739 4.656 1.33 0.143-1.034 0.558-1.74 1.016-2.14-3.554-0.404-7.29-1.777-7.29-7.907 0-1.747 0.625-3.174 1.649-4.295-0.166-0.403-0.714-2.030 0.155-4.234 0 0 1.344-0.43 4.401 1.64 1.276-0.355 2.645-0.532 4.005-0.539 1.359 0.006 2.729 0.184 4.008 0.539 3.054-2.070 4.395-1.64 4.395-1.64 0.871 2.204 0.323 3.831 0.157 4.234 1.026 1.12 1.647 2.548 1.647 4.295 0 6.145-3.743 7.498-7.306 7.895 0.574 0.497 1.085 1.47 1.085 2.963 0 2.141-0.019 3.864-0.019 4.391 0 0.426 0.288 0.925 1.099 0.768 6.354-2.118 10.933-8.113 10.933-15.18 0-8.837-7.164-16-16-16z"></path>
</symbol>
<symbol id="icon-linkedin" viewBox="0 0 32 32">
<path d="M29 0h-26c-1.65 0-3 1.35-3 3v26c0 1.65 1.35 3 3 3h26c1.65 0 3-1.35 3-3v-26c0-1.65-1.35-3-3-3zM12 26h-4v-14h4v14zM10 10c-1.106 0-2-0.894-2-2s0.894-2 2-2c1.106 0 2 0.894 2 2s-0.894 2-2 2zM26 26h-4v-8c0-1.106-0.894-2-2-2s-2 0.894-2 2v8h-4v-14h4v2.481c0.825-1.131 2.087-2.481 3.5-2.481 2.488 0 4.5 2.238 4.5 5v9z"></path>
</symbol>
<symbol id="sun" viewBox="0 0 24 24">
<path d="M3.563 18.563l1.781-1.828 1.406 1.406-1.781 1.828zM11.016 22.453v-2.953h1.969v2.953h-1.969zM12 5.484q2.484 0 4.242 1.758t1.758 4.242-1.758 4.242-4.242 1.758-4.242-1.758-1.758-4.242 1.758-4.242 4.242-1.758zM20.016 10.5h3v2.016h-3v-2.016zM17.25 18.141l1.406-1.359 1.781 1.781-1.406 1.406zM20.438 4.453l-1.781 1.781-1.406-1.406 1.781-1.781zM12.984 0.563v2.953h-1.969v-2.953h1.969zM3.984 10.5v2.016h-3v-2.016h3zM6.75 4.828l-1.406 1.406-1.781-1.781 1.406-1.406z"></path>
</symbol>
<symbol id="moon" viewBox="0 0 18 18">
<path d="M7.246 3.255c-0.251 0.828-0.322 1.71-0.198 2.597 0.366 2.63 2.455 4.723 5.080 5.089 0.282 0.040 0.568 0.060 0.85 0.060 0.599 0 1.184-0.087 1.742-0.257-0.674 2.215-2.642 3.926-4.973 4.21-0.254 0.031-0.51 0.047-0.762 0.047-1.713 0-3.349-0.738-4.486-2.024-1.152-1.304-1.669-2.987-1.457-4.739 0.284-2.335 1.992-4.307 4.204-4.982zM8.985 1c-0.362 0-0.731 0.024-1.104 0.075-3.543 0.48-6.388 3.364-6.82 6.92-0.592 4.867 3.184 9.005 7.924 9.005 0.33 0 0.665-0.020 1.003-0.062 3.549-0.433 6.428-3.283 6.907-6.833 0.052-0.383 0.076-0.761 0.075-1.134-0.002-0.583-0.482-0.972-0.996-0.972-0.209 0-0.424 0.065-0.614 0.207-0.665 0.498-1.489 0.793-2.383 0.793-0.188 0-0.38-0.013-0.574-0.040-1.732-0.242-3.137-1.649-3.378-3.385-0.155-1.115 0.149-2.156 0.751-2.963 0.415-0.657 0.025-1.609-0.764-1.612-0.009 0-0.018 0-0.028 0v0z"></path>
</symbol>
<symbol id="icon-arrow-right" viewBox="0 0 32 32">
<path d="M19.414 27.414l10-10c0.781-0.781 0.781-2.047 0-2.828l-10-10c-0.781-0.781-2.047-0.781-2.828 0s-0.781 2.047 0 2.828l6.586 6.586h-19.172c-1.105 0-2 0.895-2 2s0.895 2 2 2h19.172l-6.586 6.586c-0.39 0.39-0.586 0.902-0.586 1.414s0.195 1.024 0.586 1.414c0.781 0.781 2.047 0.781 2.828 0z"></path>
</symbol>
<symbol id="icon-arrow-left" viewBox="0 0 32 32">
<path d="M12.586 27.414l-10-10c-0.781-0.781-0.781-2.047 0-2.828l10-10c0.781-0.781 2.047-0.781 2.828 0s0.781 2.047 0 2.828l-6.586 6.586h19.172c1.105 0 2 0.895 2 2s-0.895 2-2 2h-19.172l6.586 6.586c0.39 0.39 0.586 0.902 0.586 1.414s-0.195 1.024-0.586 1.414c-0.781 0.781-2.047 0.781-2.828 0z"></path>
</symbol>
<symbol id="icon-youtube"  viewBox="0 0 32 32">
      <path  d="M25.354 4.678h-18.708c-3.67 0-6.646 2.976-6.646 6.646v9.352c0 3.67 2.975 6.646 6.646 6.646h18.708c3.67 0 6.646-2.976 6.646-6.646v-9.352c0-3.67-2.976-6.646-6.646-6.646zM20.859 16.455l-8.75 4.173c-0.233 0.111-0.502-0.059-0.502-0.317v-8.608c0-0.262 0.276-0.432 0.51-0.313l8.75 4.434c0.26 0.132 0.256 0.505-0.008 0.63z"></path>
    </symbol>
</defs>
</svg>
